# xmcd
#
# Track frame offsets:
#	150
#	17985
#	34190
#	48252
#	63447
#	81232
#	99242
#	111692
#	129417
#	147947
#	162675
#	176835
#	196162
#	208627
#	223720
#
# Disc length: 3211 seconds
#
# Revision: 1
# Processed by: cddbd v1.5.1PL2 Copyright (c) Steve Scherf et al.
# Submitted via: audiograbber 1.83.01
#
DISCID=e10c890f
DTITLE=Various Artist - SC8112
DYEAR=1900
DGENRE=Karaoke
TTITLE0=Brooks and Dunn - Rock My World (Little Country Girl)
TTITLE1=Chesnutt, Mark - I Just Wanted You To Know
TTITLE2=McGraw, Tim - Indian Outlaw
TTITLE3=Loveless, Patty - You Will
TTITLE4=Bogguss, Suzy - Hey Cinderella
TTITLE5=Gill, Vince - Tryin' To Get Over You
TTITLE6=Parton, Dolly - Why'd You Come In Here Lookin' Like That
TTITLE7=Whitley, Keith - When You Say Nothing At All
TTITLE8=Alabama - Mountain Music
TTITLE9=Judds, The - Girls Night Out
TTITLE10=Tritt, Travis - Trouble
TTITLE11=Wright, Michelle - Take It Like A Man
TTITLE12=Ledoux, Chris - Every Time I Roll The Dice
TTITLE13=Tillis, Pam - Don't Tell Me What To Do
TTITLE14=Jackson, Alan - You Can't Have It All
EXTD=
EXTT0=
EXTT1=
EXTT2=
EXTT3=
EXTT4=
EXTT5=
EXTT6=
EXTT7=
EXTT8=
EXTT9=
EXTT10=
EXTT11=
EXTT12=
EXTT13=
EXTT14=
PLAYORDER=
